
        <svg xmlns="http://www.w3.org/2000/svg" xmlns:xlink="http://www.w3.org/1999/xlink" version="1.1" width="3162.3083859332733" height="794.110750486444" viewBox="0 0 3162.3083859332733 794.110750486444">
			
			<g transform="scale(8.115419296663662) translate(10, 10)">
				<defs id="SvgjsDefs1315"/><g id="SvgjsG1316" featureKey="PG4fjM-0" transform="matrix(0.9290226207425335,0,0,0.9290226207425335,-4.738016606165939,-8.268302742184568)" fill="#fff"><path xmlns="http://www.w3.org/2000/svg" d="M89.2,64.3c-2.4,0-4.4,1.5-5.2,3.5l-26-5.2c0-0.2,0-0.3,0-0.5c0-0.7-0.1-1.4-0.3-2.1l14-6.1c1.4,2.3,3.9,3.9,6.8,3.9  c4.4,0,8-3.6,8-8c0-3.2-1.9-6-4.7-7.2l1.9-6.5c0.2,0,0.4,0.1,0.6,0.1c1,0,2-0.4,2.7-1.1c1.6-1.5,1.7-4,0.2-5.6  c-0.7-0.8-1.8-1.2-2.9-1.2c-1,0-2,0.4-2.7,1.1c-0.8,0.7-1.2,1.7-1.2,2.8c0,1.1,0.3,2.1,1.1,2.8c0.4,0.4,0.8,0.7,1.3,0.9l-1.8,6.4  c-0.8-0.2-1.6-0.4-2.4-0.4c-2.2,0-4.2,0.9-5.6,2.3l-2-2c1.7-2.1,1.7-5.2-0.2-7.2c-1-1.1-2.5-1.7-4-1.7c-1.4,0-2.7,0.5-3.7,1.5  c-0.6,0.6-1.1,1.3-1.4,2.1l-8.4-1.4l1.1-15.8c2.7-0.3,4.8-2.6,4.8-5.4c0-3-2.4-5.4-5.4-5.4s-5.4,2.4-5.4,5.4c0,2.5,1.7,4.7,4.1,5.3  l-1.1,15.6L38,32.8c-0.1-0.9-0.4-1.7-1-2.4c-0.7-0.8-1.8-1.2-2.9-1.2c-0.8,0-1.6,0.3-2.3,0.7l-6.6-7.2c0.6-0.7,1-1.6,1-2.5  c0-2.2-1.8-4-4-4s-4,1.8-4,4s1.8,4,4,4c0.9,0,1.6-0.3,2.3-0.7l6.6,7.2c-1.2,1.5-1.3,3.6,0,5.1L25,45.6c-0.9-0.4-1.9-0.6-2.9-0.6  c-1.8,0-3.6,0.7-4.9,1.9c-0.3,0.3-0.6,0.6-0.8,0.9l-3.7-2.4c0.3-0.5,0.4-1.1,0.4-1.7c0-2.2-1.8-4-4-4s-4,1.8-4,4s1.8,4,4,4  c1.2,0,2.3-0.6,3-1.4l3.7,2.4c-1.5,2.6-1.1,6.1,1,8.4c0.3,0.3,0.5,0.5,0.8,0.7l-3.2,4.5c-0.7-0.3-1.5-0.5-2.3-0.5  c-3,0-5.5,2.4-5.5,5.5s2.4,5.5,5.5,5.5s5.5-2.4,5.5-5.5c0-1.4-0.6-2.8-1.5-3.7l3.4-4.6c0.8,0.3,1.7,0.5,2.7,0.5  c1.2,0,2.4-0.3,3.4-0.9L33.1,70c-0.9,0.7-1.4,1.8-1.4,3c0,2.2,1.8,4,4,4s4-1.8,4-4s-1.8-4-4-4c-0.6,0-1.2,0.2-1.7,0.4l-7.5-11.6  c0.2-0.2,0.4-0.3,0.6-0.5c2.9-2.7,3-7.2,0.3-10.1c-0.2-0.2-0.4-0.4-0.7-0.6l6-9.8c0.4,0.2,0.9,0.3,1.3,0.3c1,0,2-0.4,2.7-1.1  c0.4-0.4,0.7-0.8,0.9-1.2l13.4,2.3L50,54.5c-1.6,0.1-3,0.7-4.2,1.6L43.9,54c0.6-0.7,1-1.6,1-2.6c0-2.2-1.8-4-4-4s-4,1.8-4,4  s1.8,4,4,4c0.8,0,1.6-0.3,2.3-0.7l1.9,2.1c-1.3,1.4-2.1,3.2-2.1,5.3c0,4.1,3.2,7.4,7.2,7.6l0.3,12.2c-2.7,0.3-4.8,2.6-4.8,5.4  c0,3,2.4,5.4,5.4,5.4s5.4-2.4,5.4-5.4c0-2.9-2.2-5.2-5.1-5.4l-0.3-12.2c3-0.3,5.5-2.3,6.5-5.1l26,5.2c0,0,0,0.1,0,0.1  c0,3.1,2.5,5.6,5.6,5.6s5.6-2.5,5.6-5.6S92.2,64.3,89.2,64.3z M83,30.7c0.4-0.3,0.8-0.5,1.3-0.5c0.5,0,1.1,0.2,1.4,0.6  c0.7,0.8,0.7,2-0.1,2.8c-0.8,0.7-2.1,0.7-2.8-0.1c-0.4-0.4-0.5-0.9-0.5-1.4S82.6,31,83,30.7z M9.2,45.7c-1.1,0-2-0.9-2-2  c0-1.1,0.9-2,2-2s2,0.9,2,2C11.2,44.8,10.3,45.7,9.2,45.7z M12.2,70.6c-1.9,0-3.5-1.6-3.5-3.5s1.6-3.5,3.5-3.5s3.5,1.6,3.5,3.5  S14.1,70.6,12.2,70.6z M37.6,73.1c0,1.1-0.9,2-2,2c-1.1,0-2-0.9-2-2c0-1.1,0.9-2,2-2C36.7,71.1,37.6,72,37.6,73.1z M25.7,55.9  c-1,0.9-2.2,1.4-3.5,1.4c-1.4,0-2.8-0.6-3.8-1.6c-1.9-2.1-1.8-5.3,0.2-7.3c1-0.9,2.2-1.4,3.5-1.4c1.4,0,2.8,0.6,3.8,1.6  C27.9,50.7,27.8,54,25.7,55.9z M22.2,22.1c-1.1,0-2-0.9-2-2c0-1.1,0.9-2,2-2s2,0.9,2,2C24.1,21.2,23.3,22.1,22.2,22.1z M35.5,34.6  c-0.8,0.7-2.1,0.7-2.8-0.1c-0.7-0.8-0.7-2,0.1-2.8c0.4-0.3,0.8-0.5,1.3-0.5c0.5,0,1.1,0.2,1.4,0.6C36.3,32.6,36.2,33.8,35.5,34.6z   M78.5,43.8c3.3,0,6,2.7,6,6s-2.7,6-6,6s-6-2.7-6-6S75.2,43.8,78.5,43.8z M64.4,36.2c0.6-0.6,1.5-0.9,2.4-0.9c1,0,1.9,0.4,2.5,1.1  c1.3,1.4,1.2,3.6-0.2,4.9c-0.6,0.6-1.5,0.9-2.4,0.9c-1,0-1.9-0.4-2.5-1.1C62.9,39.6,63,37.5,64.4,36.2z M61.3,38.8  c0,1.3,0.5,2.6,1.5,3.6c1,1.1,2.5,1.7,4,1.7c1.3,0,2.5-0.5,3.5-1.3l2,2c-1,1.3-1.7,3-1.7,4.9c0,0.8,0.1,1.5,0.3,2.3l-14,6.1  c-1.1-1.8-2.9-3.1-5-3.5l1.2-17.3L61.3,38.8z M50.2,14.1c0-1.9,1.5-3.4,3.4-3.4s3.4,1.5,3.4,3.4s-1.5,3.4-3.4,3.4S50.2,16,50.2,14.1  z M40.9,53.4c-1.1,0-2-0.9-2-2c0-1.1,0.9-2,2-2s2,0.9,2,2C42.9,52.5,42,53.4,40.9,53.4z M54.5,87.3c0,1.9-1.5,3.4-3.4,3.4  s-3.4-1.5-3.4-3.4s1.5-3.4,3.4-3.4S54.5,85.4,54.5,87.3z M50.5,67.6c-3.1,0-5.6-2.5-5.6-5.6s2.5-5.6,5.6-5.6S56,59,56,62.1  S53.5,67.6,50.5,67.6z M89.2,73.4c-2,0-3.6-1.6-3.6-3.6s1.6-3.6,3.6-3.6s3.6,1.6,3.6,3.6S91.1,73.4,89.2,73.4z"/></g><g id="SvgjsG1317" featureKey="jxYttZ-0" transform="matrix(3.169320995971793,0,0,3.169320995971793,102.36613791655567,-7.6422626386896795)" fill="#fff"><path d="M13.1 10.12 l2.06 0 l-3.76 9.88 l-1.26 0 l-2.46 -6.4 l-2.44 6.4 l-1.26 0 l-3.78 -9.88 l2.08 0 l2.34 6.9 l2.06 -6.08 l0.26 -0.82 l1.48 0 l0.28 0.82 l2.06 6.08 z M25.88 15.08 l0 0.74 l-7.78 0 c0 1.82 1.74 2.7 3.02 2.7 c0.94 0 1.98 -0.5 2.54 -1.3 l1.42 1.28 c-0.66 0.9 -1.74 1.7 -3.96 1.7 c-3.2 0 -5.16 -2.18 -5.16 -5.12 s1.9 -5.14 4.96 -5.14 s4.46 1.7 4.88 4.18 c0.06 0.32 0.08 0.64 0.08 0.96 z M18.14 14.120000000000001 l5.58 0 c0 -1.6 -1.28 -2.48 -2.8 -2.48 s-2.78 1.02 -2.78 2.48 z M32.84 9.94 c2.84 0 4.94 2.2 4.94 5.14 s-2.1 5.12 -4.94 5.12 c-0.96 0 -2.06 -0.36 -2.84 -0.94 l0 0.74 l-2.06 0 l0 -15 l2.06 0 l0 5.9 c0.66 -0.54 1.88 -0.96 2.84 -0.96 z M32.64 18.52 c1.7 0 3.08 -1.44 3.08 -3.44 c0 -2.02 -1.38 -3.44 -3.08 -3.44 c-1.12 0 -2.1 0.5 -2.64 1.56 c-0.28 0.56 -0.44 1.2 -0.44 1.88 s0.16 1.32 0.44 1.86 c0.54 1.06 1.52 1.58 2.64 1.58 z M42.059999999999995 4.619999999999999 l0 15.38 l-2.08 0 l0 -15.38 l2.08 0 z M47.42 10.12 l0 9.88 l-2.06 0 l0 -9.88 l2.06 0 z M47.519999999999996 6.5 c0 0.64 -0.5 1.14 -1.14 1.14 c-0.62 0 -1.12 -0.5 -1.12 -1.14 c0 -0.62 0.5 -1.12 1.12 -1.12 c0.64 0 1.14 0.5 1.14 1.12 z M59.459999999999994 14.3 l0 5.7 l-2.06 0 l0 -5.5 c0 -2 -0.62 -2.88 -2.32 -2.88 c-1.92 0 -2.7 1.34 -2.7 3.08 l0 5.3 l-2.06 0 l0 -9.88 l2.06 0 l0 1.6 c0.28 -0.88 1.52 -1.68 2.7 -1.76 c2.68 -0.2 4.38 1.1 4.38 4.34 z M66.74 20.2 c-2.84 0 -4.94 -2.18 -4.94 -5.12 s2.1 -5.14 4.94 -5.14 c0.98 0 2.06 0.36 2.84 0.96 l0 -0.78 l2.08 0 l0 14.98 l-2.08 0 l0 -5.84 c-0.66 0.54 -1.86 0.94 -2.84 0.94 z M66.94 11.64 c-1.7 0 -3.08 1.42 -3.08 3.44 c0 2 1.38 3.44 3.08 3.44 c1.12 0 2.1 -0.52 2.64 -1.58 c0.28 -0.54 0.44 -1.18 0.44 -1.86 s-0.16 -1.32 -0.44 -1.86 c-0.54 -1.08 -1.52 -1.58 -2.64 -1.58 z M79.2 11.64 c-1.7 0 -3.08 1.42 -3.08 3.44 c0 2 1.38 3.44 3.08 3.44 s3.08 -1.44 3.08 -3.44 c0 -2.02 -1.38 -3.44 -3.08 -3.44 z M79.2 9.94 c2.84 0 5.14 2.2 5.14 5.14 s-2.3 5.12 -5.14 5.12 s-5.14 -2.18 -5.14 -5.12 s2.3 -5.14 5.14 -5.14 z"/></g>
			</g>
		</svg>
	